<svg xmlns="http://www.w3.org/2000/svg" viewBox="0 0 128 128" fill="none">
  <rect width="128" height="128" rx="64" fill="#1a1a1a"/>
  <g transform="translate(20 28)">
    <path d="M84.2 0L49.6 25.7l6.4-15.1L84.2 0z" fill="#E17726"/>
    <path d="M3.6 0l34.3 25.9-6.1-15.3L3.6 0zM72.1 51.6l-9.2 14.1 19.7 5.4 5.7-19.2-16.2-.3zM.6 51.9l5.6 19.2 19.7-5.4-9.2-14.1-16.1.3z" fill="#E27625"/>
    <path d="M24.8 31.5l-5.5 8.3 19.5.9-.7-21-13.3 11.8zM63 31.5L49.5 19.5l-.5 21.2 19.5-.9L63 31.5zM25.9 65.7L37.6 60l-10.1-7.9-1.6 13.6zM50.2 60l11.7 5.7-1.6-13.6L50.2 60z" fill="#E27625"/>
    <path d="M61.9 65.7L50.2 60l.9 7.6-.1 3.2 10.9-5.1zM25.9 65.7l10.9 5.1-.1-3.2.9-7.6-11.7 5.7z" fill="#D5BFB2"/>
    <path d="M37 47.6l-9.7-2.8 6.9-3.2 2.8 6zm13.8 0l2.8-6 6.9 3.2-9.7 2.8z" fill="#233447"/>
    <path d="M25.9 65.7l1.7-14.1-10.9.3 9.2 13.8zm34.4-14.1l1.7 14.1 9.2-13.8-10.9-.3zM68.5 39.8l-19.5.9 1.8 10 2.8-6 6.9 3.2 8-8.1zm-41.2 8.1l6.9-3.2 2.8 6 1.8-10-19.5-.9 8 8.1z" fill="#CC6228"/>
    <path d="M19.3 39.8l8.2 16-.3-8-7.9-8zm49.1 8l-.4 8 8.3-16-7.9 8zM38.8 40.7l-1.8 10 2.3 11.7.5-15.4-1-6.3zm10 0l-1 6.3.5 15.4 2.3-11.7-1.8-10z" fill="#E27525"/>
    <path d="M50.8 53.6l-2.3 11.7 1.7 1.2 10.1-7.9.3-8-9.8 3zm-23.5-3l.3 8 10.1 7.9 1.7-1.2-2.3-11.7-9.8-3z" fill="#F5841F"/>
    <path d="M51 70.8l.1-3.2-.9-.8h-12.6l-.9.8.1 3.2-10.9-5.1 3.8 3.1 7.7 5.4h13.1l7.7-5.4 3.8-3.1-10.9 5.1z" fill="#C0AC9D"/>
    <path d="M50.2 66.7l-1.7-1.2H39.4l-1.7 1.2-.9-.8.9 7.5 7.7 5.4 7.7-5.4.9-7.5-.9.8z" fill="#161616"/>
    <path d="M84.6 27.4L87.8 12 84.2 0l-28.1 20.9 17.6 14.9 24.9 7.3 5.5-6.4-2.4-1.7 3.8-3.5-2.9-2.3 3.8-2.9-2.5-1.9zM0 12l3.2 15.4-2.5 1.9 3.8 2.9-2.9 2.3 3.8 3.5L3 39.7l5.5 6.4 24.9-7.3 17.6-14.9L22.9 0 0 12z" fill="#763E1A"/>
    <path d="M82.9 43.1l-24.9-7.3 7.6 11.4-11.3 22.1 14.9-.2h22.2L82.9 43.1zm-49.9-7.3L8.1 43.1 0 69.1h22.2l14.9.2-11.3-22.1 7.2-11.4zm17.2 6.4l1-16.9 4.4-12H35.6l4.4 12 1 16.9.4 5.3v15.4h6.4V47.5l.4-5.3z" fill="#F5841F"/>
  </g>
</svg>
