<svg xmlns="http://www.w3.org/2000/svg" viewBox="0 0 128 128" fill="none">
  <rect width="128" height="128" rx="64" fill="url(#pg)"/>
  <path d="M110 64.9c0 26-21.1 47.1-47.1 47.1S15.8 90.9 15.8 64.9 36.9 17.8 62.9 17.8 110 38.9 110 64.9zm-71 .8h9.4c0-9.4 5-17.5 14.4-17.5 7.2 0 11.6 5 11.6 12.4v17h7v-17c0-7.4 4.4-12.4 11.6-12.4 9.4 0 14.4 8.1 14.4 17.5h9.4c0-14.7-8.7-26.5-22.4-26.5-7.7 0-13.4 4-16.5 9.7-3.1-5.7-8.8-9.7-16.5-9.7-13.7 0-22.4 11.8-22.4 26.5zm22 16.5a4.6 4.6 0 100-9.2 4.6 4.6 0 000 9.2zm32 0a4.6 4.6 0 100-9.2 4.6 4.6 0 000 9.2z" fill="#fff"/>
  <defs>
    <linearGradient id="pg" x1="64" y1="0" x2="64" y2="128" gradientUnits="userSpaceOnUse">
      <stop stop-color="#534BB1"/>
      <stop offset="1" stop-color="#551BF9"/>
    </linearGradient>
  </defs>
</svg>
